<svg width="135" height="135" viewBox="0 0 135 135" fill="none" xmlns="http://www.w3.org/2000/svg">
<path d="M89.1674 50.5181H63.3599V0H89.1674C103.095 0 114.424 11.3287 114.424 25.2562C114.424 39.1838 103.095 50.5181 89.1674 50.5181ZM71.6343 42.2438H89.1674C98.5331 42.2438 106.149 34.6219 106.149 25.2619C106.149 15.9019 98.5274 8.28 89.1674 8.28H71.6343V42.2438ZM71.6343 50.5181H45.8324C31.9049 50.5181 20.5762 39.1894 20.5762 25.2619C20.5762 11.3344 31.9049 0 45.8324 0H71.6399V50.5181H71.6343ZM45.8324 8.27437C36.4668 8.27437 28.8506 15.8962 28.8506 25.2562C28.8506 34.6162 36.4668 42.2438 45.8324 42.2438H63.3656V8.27437H45.8324ZM71.6343 92.7562H45.8324C31.9049 92.7562 20.5762 81.4275 20.5762 67.5C20.5762 53.5725 31.9049 42.2438 45.8324 42.2438H71.6399V92.7562H71.6343ZM45.8324 50.5181C36.4668 50.5181 28.8506 58.14 28.8506 67.5C28.8506 76.86 36.4724 84.4819 45.8324 84.4819H63.3656V50.5181H45.8324ZM45.9674 135C31.9668 135 20.5706 123.671 20.5706 109.744C20.5706 95.8163 31.8993 84.4875 45.8268 84.4875H71.6343V109.468C71.6343 123.548 60.1199 135 45.9674 135ZM45.8324 92.7562C41.3304 92.7622 37.0144 94.5533 33.831 97.7367C30.6476 100.92 28.8565 105.236 28.8506 109.738C28.8506 119.104 36.5287 126.72 45.9731 126.72C55.5637 126.72 63.3712 118.98 63.3712 109.462V92.7562H45.8324ZM89.1674 92.7562H88.6162C74.6887 92.7562 63.3599 81.4275 63.3599 67.5C63.3599 53.5725 74.6887 42.2438 88.6162 42.2438H89.1674C103.095 42.2438 114.424 53.5725 114.424 67.5C114.424 81.4275 103.095 92.7562 89.1674 92.7562ZM88.6218 50.5181C79.2562 50.5181 71.6399 58.14 71.6399 67.5C71.6399 76.86 79.2618 84.4819 88.6218 84.4819H89.173C98.5387 84.4819 106.155 76.86 106.155 67.5C106.155 58.14 98.5274 50.5181 89.1674 50.5181H88.6218Z" fill="white"/>
</svg>
