<svg width="135" height="135" viewBox="0 0 135 135" fill="none" xmlns="http://www.w3.org/2000/svg">
<g clip-path="url(#clip0_6_124)">
<path d="M0 0H135V135H0V0ZM123.941 102.802C122.957 96.6431 118.946 91.4681 107.049 86.6419C102.909 84.7012 98.3081 83.3512 96.9412 80.2294C96.4294 78.3731 96.3506 77.3606 96.6825 76.2637C97.5262 72.63 101.829 71.5387 105.204 72.5512C107.398 73.2262 109.423 74.9137 110.694 77.6138C116.511 73.8112 116.511 73.8112 120.566 71.2856C119.048 68.9231 118.294 67.905 117.27 66.8981C113.726 62.9325 109.007 60.9075 101.329 61.0819L97.3631 61.5825C93.5606 62.5106 89.9381 64.5356 87.7444 67.2356C81.3319 74.4975 83.1825 87.1537 90.945 92.385C98.6231 98.1225 109.851 99.3825 111.285 104.788C112.635 111.369 106.391 113.479 100.226 112.719C95.6644 111.707 93.1387 109.423 90.3544 105.204L80.0606 111.116C81.2419 113.816 82.5919 114.992 84.6169 117.354C94.4044 127.232 118.873 126.726 123.266 111.707C123.429 111.201 124.616 107.741 123.683 102.426L123.941 102.802ZM73.4119 62.0494H60.7669C60.7669 72.9506 60.7162 83.7844 60.7162 94.7025C60.7162 101.632 61.0706 107.994 59.94 109.952C58.0838 113.828 53.3025 113.333 51.1313 112.652C48.9038 111.549 47.7731 110.031 46.4625 107.843C46.1081 107.252 45.8438 106.74 45.7481 106.74L35.4825 113.068C37.1981 116.612 39.7012 119.661 42.93 121.601C47.7394 124.47 54.2025 125.398 60.9694 123.879C65.3737 122.608 69.1706 119.993 71.1562 115.942C74.025 110.711 73.4175 104.299 73.3894 97.1213C73.4569 85.5675 73.3894 74.0081 73.3894 62.3644L73.4119 62.0494Z" fill="white"/>
</g>
<defs>
<clipPath id="clip0_6_124">
<rect width="135" height="135" fill="white"/>
</clipPath>
</defs>
</svg>
